<?xml version="1.0" encoding="UTF-8"?><svg id="Layer_1" xmlns="http://www.w3.org/2000/svg" viewBox="0 0 408.37 214.56"><defs><style>.cls-1{fill:#1c1c1b;}.cls-1,.cls-2,.cls-3,.cls-4,.cls-5{stroke-width:0px;}.cls-2{fill:#9f358b;}.cls-3{fill:#009eb0;}.cls-4{fill:#f00023;}.cls-5{fill:#004f9f;}</style></defs><path class="cls-1" d="m229.99,165.43h-6.35V59.58h6.35v105.86Z"/><path class="cls-1" d="m259.67,165.43h-6.35V59.58h19.2c13.97,0,23.01,2.38,32.53,8.25,15.39,9.68,24.76,26.82,24.76,45.55,0,17.3-8.73,33.96-22.7,43.64-8.57,5.87-17.62,8.41-30.63,8.41h-11.75v-5.87h9.52c12.7,0,18.57-1.27,26.66-6.19,4.13-2.38,7.94-5.55,11.11-9.21,7.3-8.41,11.11-18.73,11.11-30.47,0-16.82-8.09-31.74-21.58-40.63-8.73-5.55-16.82-7.62-30.47-7.62h-11.43v99.98Z"/><path class="cls-1" d="m339.02,165.43v-5.87h37.3c10.32,0,16.19-1.75,20.31-6.03,3.17-3.33,5.08-8.57,5.08-13.65,0-5.87-2.54-11.9-6.83-15.39-3.49-3.02-7.78-5.08-16.66-7.94l-12.85-4.13c-11.27-3.65-16.82-6.82-21.27-12.06-3.65-4.29-5.4-9.68-5.4-15.87,0-16.35,10.79-24.92,31.26-24.92h32.85v5.87h-32.22c-11.27,0-16.51,1.59-20.79,6.19-2.86,3.17-4.44,7.46-4.44,12.22,0,5.71,2.22,10.95,6.03,14.28,3.65,3.17,7.78,5.24,16.03,7.78l12.86,4.13c12.54,4.13,18.09,7.3,22.7,13.33,3.49,4.6,5.4,10.63,5.4,16.66,0,9.52-4.92,17.93-13.01,22.22-4.76,2.38-8.89,3.17-17.78,3.17h-38.57Z"/><polygon class="cls-2" points="98.77 164.3 74.5 150.29 49.39 164.79 49.39 186.05 98.77 214.56 148.15 186.05 148.15 164.79 148.15 135.79 98.77 164.3"/><polygon class="cls-4" points="96.47 1.33 49.39 28.51 49.39 50.74 49.01 78.98 98.77 50.26 123.88 64.76 148.15 50.74 148.15 28.51 98.77 0 96.47 1.33"/><polygon class="cls-5" points="0 79.26 0 136.28 49.39 164.79 74.5 150.29 49.38 135.79 49.39 79.26 49.39 78.77 49.39 50.74 0 79.26"/><polygon class="cls-3" points="148.15 78.77 148.15 135.3 148.15 135.79 148.15 164.79 197.53 136.28 197.53 79.26 148.15 50.74 123.88 64.76 148.15 78.77"/><path class="cls-1" d="m178.21,207.66h-1.07v-12.96h-3.98v-1.03h8.95v1.03h-3.9v12.96Zm20.44,0h-1.07l-1.55-12.48-.07-.33-.04-.18-.04-.04c-.07,0-.11.18-.22.55l-3.5,11.53c-.22.74-.55,1.07-1.07,1.07-.59,0-.92-.4-1.22-1.44l-3.35-11.49c-.04-.15-.07-.22-.15-.22-.04,0-.11.11-.11.22l-1.66,12.82h-1.1l1.69-12.56c.11-1.07.48-1.51,1.22-1.51.62,0,.96.37,1.22,1.25l3.39,11.53.04.15.04.11c.07-.15.07-.18.11-.29l3.46-11.38c.29-1.03.59-1.36,1.22-1.36.74,0,1.07.44,1.22,1.55l1.55,12.52Z"/></svg>